<svg xmlns="http://www.w3.org/2000/svg" width="100" height="71" viewBox="0 0 100 71" fill="none"><g clip-path="url(#clip0_8_514)"><path d="M93.9366 48.4968C95.0316 47.3005 96.3321 47.3089 97.7255 47.8466C97.8494 48.0267 97.9535 48.235 98.2125 48.2125V44.4433C98.3279 43.9226 98.7445 44.1365 99.0513 44.1055C99.3638 44.0746 99.6819 44.0886 99.9972 44.083V55.8268C99.3835 55.6748 98.6854 55.9648 98.1337 55.4328C97.8888 55.1963 97.6636 55.4834 97.4412 55.582C95.558 56.4208 93.2836 54.988 93.2188 52.9219C93.064 51.3849 93.2723 49.9043 93.9338 48.4996L93.9366 48.4968ZM96.4081 54.2843C97.3962 54.4644 98.2181 53.8986 98.2519 52.9753C98.2829 52.0886 98.3054 51.1963 98.2435 50.3124C98.1956 49.5918 97.8466 49.0626 96.9993 49.1189C96.0563 48.9162 95.4145 49.2822 95.1527 50.197C94.8487 51.261 94.8008 52.3335 95.2596 53.3807C95.482 53.8902 95.8311 54.2308 96.4081 54.2843Z" fill="white"></path><path d="M49.5706 70.1603C49.306 69.7831 49.1681 69.3552 49.0498 68.9133C46.0097 57.6592 42.9612 46.408 39.9154 35.1567C39.1667 32.3925 38.4179 29.6254 37.6776 26.8584C37.5988 26.56 37.5762 26.2475 37.5256 25.9407L37.5059 25.9576C37.7958 25.9322 37.9562 25.5973 38.2715 25.6311C38.1364 25.966 38.1617 26.2926 38.2603 26.6388C38.5755 27.7422 38.8655 28.8513 39.1638 29.9576C41.3876 38.1997 43.6058 46.4446 45.8352 54.6867C47.1216 59.4439 48.4277 64.1926 49.7142 68.9498C49.8324 69.3918 49.9619 69.7774 50.4517 69.9069L50.2631 70.1603H49.5734H49.5706Z" fill="#F79623"></path><path d="M93.1062 59.4243C94.1984 58.8388 94.8486 59.0865 95.1808 60.1843C95.5101 61.2737 95.8648 62.3546 96.2082 63.4412C96.394 63.5904 96.2308 63.931 96.4841 64.038C96.9514 62.4785 97.4102 60.9528 97.869 59.4299C98.3307 58.9767 98.9106 59.1681 99.4172 59.2216C99.9099 59.2751 99.5805 59.6692 99.5073 59.8916C98.736 62.2533 97.9113 64.6009 97.1822 66.9767C96.7262 68.4546 96.1097 69.7213 94.4771 70.1632H93.9591C93.6636 69.6903 93.6439 69.1555 93.6354 68.6206C93.9591 68.539 94.2828 68.4602 94.6065 68.3786C94.6797 68.3363 94.7557 68.2969 94.8289 68.2547L94.8149 68.266C95.5073 67.8916 95.7916 67.2019 95.5833 66.5573C94.8177 64.1618 94.0661 61.7579 93.109 59.4271L93.1062 59.4243Z" fill="white"></path><path d="M93.6299 68.6178C93.6383 69.1526 93.658 69.6847 93.9536 70.1604H93.2639C93.2639 69.7607 93.2752 69.3609 93.2695 68.9612C93.2667 68.7079 93.3793 68.5953 93.6299 68.6178Z" fill="#F79623"></path><path d="M24.5968 11.5706C25.5708 12.3306 26.2717 13.2736 26.5954 14.484C27.0683 16.2518 27.4455 18.0392 27.6595 19.8549C27.7298 20.4657 27.9353 20.6937 28.5884 20.6064C30.5307 20.3475 32.4814 20.1167 34.4322 19.9309C35.7298 19.807 36.7995 20.4488 37.8354 21.13C36.4786 25.1469 35.1331 29.1694 33.765 33.1835C31.5581 39.6635 29.3343 46.1378 27.1274 52.6149C25.7988 56.5164 24.4167 60.401 23.1837 64.3306C22.4659 66.6163 21.2724 68.2912 18.8403 68.8485C17.903 69.0625 16.9487 68.933 16.0057 68.9358C12.3632 68.9471 9.99585 65.6283 11.164 62.1687C12.3716 58.5853 13.5961 55.0076 14.8037 51.4242C15.7833 48.5164 16.746 45.6057 17.7228 42.6979C19.074 38.681 20.4927 34.6867 21.7594 30.6445C22.5391 28.1617 21.3484 25.5044 19.2766 24.0941C18.0606 23.2665 16.7038 23.0216 15.2795 23.0188C12.1999 23.0104 9.12041 23.0188 6.04089 23.0132C5.16826 23.0132 4.34912 22.819 3.58346 22.3601C0.836104 20.7078 0.684098 17.4143 1.63273 14.6726C2.40683 12.4319 4.36601 11.6353 6.63765 11.6184C9.17108 11.5987 11.7045 11.6184 14.2351 11.6128C17.689 11.6043 21.1401 11.5874 24.594 11.5734L24.5968 11.5706Z" fill="white"></path><path d="M40.9909 16.8147C41.0303 18.3319 40.6193 19.7535 40.0394 21.2257C39.4652 20.9076 38.9022 20.6486 38.3983 20.3052C36.639 19.1032 34.7192 18.8471 32.6587 19.182C31.589 19.3537 30.5025 19.4157 29.4272 19.5592C28.8614 19.6352 28.5348 19.593 28.4729 18.8696C28.3941 17.9378 28.0844 17.0258 27.9634 16.0941C27.62 13.4199 26.1985 11.4129 24.1182 9.82806C23.4877 9.34671 23.5299 9.09055 24.1379 8.64861C25.095 7.95333 26.0774 7.3256 27.1978 6.93433C27.5524 7.05255 27.6003 7.40442 27.7326 7.67465C28.9008 10.042 30.0662 12.4093 31.2062 14.7908C31.4567 15.3143 31.7776 15.5789 32.3828 15.6043C33.0866 15.6352 33.7847 15.7901 34.4828 15.8886C36.6502 16.1982 38.8206 16.5051 40.988 16.8147H40.9909Z" fill="white"></path><path d="M50.449 69.907C49.9592 69.7747 49.8325 69.3891 49.7115 68.95C48.4279 64.1927 47.119 59.444 45.8326 54.6868C43.6031 46.4447 41.385 38.1998 39.1612 29.9577C38.8628 28.8514 38.5729 27.7424 38.2576 26.6389C38.1591 26.2927 38.1337 25.9661 38.2689 25.6312C39.1021 25.2399 39.3498 25.3215 39.5778 26.1519C41.1401 31.8718 42.6911 37.5918 44.2421 43.3145C46.5194 51.7227 48.7854 60.1308 51.0711 68.5362C51.2541 69.2089 51.2597 69.7241 50.4462 69.907H50.449Z" fill="white"></path><path d="M88.456 60.6148C88.0845 60.7302 87.9831 61.1102 87.7411 61.3523C87.2513 61.4508 87.2259 61.8421 87.2259 62.2165C87.2259 63.7675 87.2428 65.3185 87.2513 66.8695V66.8949C86.3815 67.0187 86.1337 66.6472 86.19 65.7886C86.2717 64.5303 86.2266 63.2608 86.2041 61.9941C86.1872 61.0398 85.6411 60.0856 84.2956 60.6148C83.6172 60.6458 83.3751 60.9835 83.3948 61.6704C83.4399 63.1848 83.4061 64.6992 83.4117 66.2137C83.4117 66.5712 83.4455 66.9258 82.9219 66.8977C81.6636 66.8132 81.6805 66.8132 81.658 65.5043C81.6271 63.4804 81.7565 61.4508 81.5876 59.4269C82.0183 58.9821 82.6855 59.0328 83.0007 59.2749C83.4652 59.6324 83.7354 59.4269 84.1014 59.2805C85.2104 58.8414 86.2914 58.7654 87.1556 59.7534C87.4765 60.1194 87.5919 59.8266 87.7467 59.6774C88.3744 59.0778 89.1767 58.9258 89.9592 58.9906C91.3301 59.1004 92.0479 59.9195 92.0817 61.3242C92.1211 62.985 92.0873 64.6486 92.0929 66.3094C92.0929 66.619 92.0732 66.8892 91.6707 66.8949C90.8637 66.8367 90.4603 66.407 90.4603 65.6056C90.4603 64.3417 90.4912 63.0807 90.449 61.8196C90.404 60.4825 89.6693 60.0603 88.4589 60.6148H88.456Z" fill="white"></path><path d="M48.0029 48.8937C49.1936 47.3511 50.3562 46.9851 51.986 47.6354C52.1971 47.748 52.3294 48.0126 52.6334 47.976V44.4376C52.9543 43.6635 53.6158 44.083 54.1085 44.0717C54.6602 44.0576 54.4237 44.5953 54.4265 44.8824C54.4462 48.0745 54.4378 51.2666 54.4378 54.4587C54.4378 55.5819 54.4237 55.6692 53.2978 55.4946C52.5462 55.3792 51.8875 55.4158 51.1669 55.6213C50.6714 55.7621 50.0859 55.7536 49.5539 55.5706C47.8875 54.363 47.4821 52.6713 47.6454 50.729C47.6989 50.0984 48.0789 49.5439 48.0029 48.8965V48.8937ZM51.347 54.0956C52.2028 54.0281 52.656 53.6002 52.6728 52.7951C52.6897 51.9957 52.6813 51.1963 52.6757 50.3996C52.6672 49.0428 51.5807 48.4207 50.3421 49.0626C49.0529 50.0675 49.3259 51.4496 49.5286 52.7585C49.6918 53.8254 50.2295 54.1491 51.347 54.0956Z" fill="white"></path><path d="M5.58765 24.2376C9.06689 24.2263 12.5461 24.156 16.0254 24.2235C19.2794 24.2855 21.6524 27.5451 20.5123 30.8808C18.8797 35.6549 17.278 40.4403 15.6594 45.22C13.9677 50.2193 12.2731 55.2186 10.5701 60.2151C10.4349 60.6092 10.3927 61.0567 10.0437 61.3551C9.97611 59.6521 10.5616 58.0786 11.088 56.5135C13.4244 49.5859 15.8311 42.6838 18.1731 35.7591C18.905 33.5916 19.6228 31.4156 19.9268 29.1271C20.0986 27.8323 19.62 26.6387 18.5306 25.9491C17.5848 25.3523 16.5461 25.0567 15.4314 25.0539C13.4469 25.0483 11.4596 25.1187 9.47786 25.0286C8.15767 24.9695 6.77273 25.037 5.58765 24.2404V24.2376Z" fill="#F79623"></path><path d="M70.6264 56.1363C71.0064 55.6437 71.5497 55.8464 71.9747 55.9364C72.4054 56.0265 72.1858 56.5248 72.1887 56.8344C72.2056 59.9139 72.2056 62.9935 72.1887 66.073C72.1887 66.3657 72.4026 66.8049 71.8537 66.8977C71.4061 66.7598 70.587 67.1877 70.7981 66.1349C70.511 66.2053 70.3984 66.3517 70.3055 66.5234C69.8579 66.7795 69.385 66.9372 68.8642 66.9118C67.9494 67.0892 67.2625 66.6303 66.7643 65.9773C65.9142 64.8654 65.689 63.5564 65.9114 62.1828C66.0155 61.5438 66.1732 60.9132 66.3055 60.2771C67.5609 58.8865 68.6278 58.636 70.1422 59.3735C70.3027 59.4523 70.3618 59.7141 70.6207 59.6493V56.1363H70.6264ZM69.872 65.3017C70.4772 65.175 70.663 64.7471 70.6658 64.1926C70.6686 63.5649 70.6067 62.9315 70.6799 62.3094C70.8459 60.8823 69.9142 60.1391 68.5715 60.5951C68.4251 60.6824 68.2506 60.7387 68.1408 60.8597C67.4258 61.6367 67.3414 64.0941 67.9916 64.9442C68.487 65.5944 69.0669 65.7042 69.872 65.3017Z" fill="white"></path><path d="M65.0641 48.9104C64.6418 49.7099 64.0169 50.1124 63.088 49.9463C62.6686 49.8703 62.5532 49.6536 62.7024 49.251C63.4455 47.2496 66.7615 46.4643 68.3097 47.9421C68.8079 48.4178 69.0556 49.0146 69.05 49.7155C69.0444 50.8358 69.0556 51.959 69.0472 53.0793C69.0416 53.8028 69.0613 54.5177 69.3737 55.2187C68.6053 55.427 67.8959 55.441 67.119 55.3481C66.3167 55.2524 65.4722 55.5283 64.6447 55.6437C64.6644 55.3397 64.3969 55.3847 64.2309 55.3087C63.1415 54.7964 62.7756 54.1434 62.7896 52.9189C62.7953 52.4094 63.0627 51.9928 63.1359 51.5142C64.1718 50.5037 65.5004 50.636 66.7784 50.5769C66.9276 50.6219 67.1162 50.6106 67.1274 50.4558C67.1612 49.8759 67.3836 49.206 66.7699 48.8091C66.2154 48.4488 65.6017 48.3925 65.0641 48.9161V48.9104ZM66.6545 53.7493C66.7756 53.7493 66.8347 53.6902 66.8347 53.5691L66.8262 53.5776C67.3526 53.0118 67.3132 52.1251 66.7474 51.8773C66.4603 51.8745 66.1704 51.8773 65.8832 51.8661C65.2977 51.8408 64.8192 51.9618 64.5518 52.5726C64.3575 53.0146 64.4758 53.3636 64.7544 53.6733C65.1682 54.1377 65.6777 54.2137 66.2351 53.9351C66.4124 53.9435 66.5926 53.9604 66.663 53.738L66.6517 53.7465L66.6545 53.7493Z" fill="white"></path><path d="M87.4229 52.1702C87.8142 54.2195 89.095 54.7712 90.7502 53.5777C91.3413 53.1498 91.6791 53.4904 92.0478 53.8845C92.5095 54.3799 92.0197 54.6079 91.7495 54.8275C90.3533 55.9704 88.8107 55.8352 87.2315 55.292C87.2174 54.9485 87.0232 54.7965 86.6939 54.7965L86.6995 54.8022C85.962 53.6875 85.5313 52.5052 85.6383 51.1231C85.6974 50.3377 86.0774 49.6649 86.1844 48.9105L86.1815 48.9274C86.235 48.8402 86.2913 48.7529 86.3448 48.6628C88.0225 46.9964 90.1618 46.8359 91.513 48.2941C92.4025 49.254 92.487 50.4447 92.4447 51.672C92.4335 51.9929 92.2167 52.0238 91.9831 52.052C91.4989 52.0435 91.0148 52.0041 90.5334 52.0379C89.5003 52.1055 88.4532 51.8437 87.4314 52.1758L87.4229 52.1702ZM88.608 48.9218C88.1069 49.0794 87.8058 49.4454 87.634 49.9183C87.4651 50.3799 87.4201 50.7571 88.1379 50.7008C88.8163 50.6473 89.5031 50.6699 90.1844 50.6586C90.6263 50.8106 90.9134 50.881 90.7248 50.197C90.4011 49.0147 89.7959 48.6122 88.608 48.9246V48.9218Z" fill="white"></path><path d="M75.544 63.7845C75.9747 65.6142 77.354 66.1321 78.8318 64.9724C79.3357 64.5783 79.5609 64.8739 79.8959 65.1694C80.3378 65.5579 80.076 65.8056 79.7805 66.0618C78.9698 66.7683 78.0296 67.1146 76.9487 67.0695C76.7038 67.0583 76.4589 67.047 76.214 67.0386C76.1943 66.85 76.1014 66.7627 75.9156 66.6811C74.7164 66.149 74.1112 65.2032 73.8494 63.9196C73.5651 62.5206 74.0577 61.3355 74.6123 60.1336L74.6038 60.142C74.7333 60.1533 74.7953 60.0913 74.784 59.9618L74.7755 59.9703C74.905 59.9844 74.9698 59.9055 75.0176 59.8014C76.1999 58.5544 78.9135 58.7148 79.8199 60.4207C80.29 61.3017 80.456 62.2335 80.4701 63.2159C80.4758 63.6128 80.2618 63.7001 79.9494 63.7338C78.48 63.6184 77.0078 63.503 75.5412 63.7873L75.544 63.7845ZM77.2076 60.5164C76.1042 60.5051 75.7777 60.8429 75.5862 62.2082H78.2154C78.4772 62.287 78.7192 62.3799 78.7277 61.9323C78.7418 61.0934 78.0746 60.4573 77.2048 60.5164H77.2076Z" fill="white"></path><path d="M73.9197 48.9471C72.7853 48.995 72.1012 49.5017 72.1829 50.7318C72.2673 51.9901 72.2026 53.2568 72.2026 54.5207C72.2026 55.2694 71.8188 55.6157 71.0513 55.5594C70.9133 55.5481 70.7782 55.489 70.6403 55.4524C70.6347 52.8796 70.6319 50.3096 70.6262 47.7367C71.0879 47.2497 72.0534 47.2131 72.3011 47.7452C72.501 48.1787 72.6473 47.9535 72.8669 47.8521C73.2019 47.6945 73.5312 47.4946 73.8831 47.413C75.7803 46.9711 77.1371 48.1533 77.1709 50.2898C77.1962 51.7789 77.1399 53.2708 77.1906 54.7599C77.2131 55.4158 76.9992 55.6495 76.3687 55.5734C76.0309 55.534 75.679 55.6213 75.3553 55.4524C75.3722 53.7156 75.4313 51.976 75.3891 50.2392C75.3665 49.2399 74.8965 48.8965 73.9197 48.9471Z" fill="white"></path><path d="M61.6187 60.508C60.9853 60.4658 60.3379 60.3757 60.1605 61.2512C60.1211 61.4398 59.8847 61.4173 59.7383 61.4904C58.2914 61.2258 58.252 61.0992 59.2119 59.8662C59.2288 59.8465 59.2316 59.8128 59.2401 59.7874L59.2288 59.7959C59.2935 59.7368 59.3583 59.6776 59.4202 59.6185L59.4033 59.6298C59.4484 59.6185 59.4906 59.596 59.5272 59.5707C60.5603 58.9401 61.6553 58.8191 62.7981 59.2104C63.7636 59.5425 64.2534 60.2097 64.2872 61.1893C64.3491 62.957 64.1014 64.7389 64.58 66.4841C64.6729 66.8275 64.4561 66.8669 64.2168 66.9007C63.7186 66.7515 63.0064 67.1653 62.7672 66.2871C62.7221 66.1182 62.4772 66.4137 62.3618 66.5545C61.8833 66.7628 61.4216 67.0077 60.898 67.0865C58.556 66.7403 57.5567 64.874 58.9895 62.9064C59.6595 62.3743 60.4364 62.1829 61.2752 62.1688C61.6159 62.1632 61.9565 62.1322 62.2943 62.1125C62.3984 62.1125 62.5757 62.1407 62.5954 62.1013C62.7784 61.6903 62.6968 61.2906 62.5251 60.8909C62.3393 60.4574 61.9987 60.4405 61.613 60.5109L61.6187 60.508ZM62.2689 64.9753C63.1162 64.6178 62.6546 63.8888 62.6349 63.368C62.6151 62.8529 62.0437 63.0781 61.7341 63.1513C61.3878 63.2329 60.9825 63.1147 60.6926 63.413C60.0648 63.7339 59.8368 64.2237 60.0817 64.8965C60.3379 65.5974 60.9234 65.5805 61.5145 65.513C61.8636 65.4736 62.0184 65.1555 62.2689 64.9725V64.9753Z" fill="white"></path><path d="M78.3983 49.4032C79.4961 47.0021 82.463 46.4025 84.1661 48.2322C84.5095 48.6009 84.6643 49.0485 84.8247 49.513C85.0077 50.045 84.805 50.1717 84.3378 50.1632C83.7523 50.1351 83.2315 50.1576 82.9838 49.3666C82.7783 48.7135 81.6383 48.2575 80.8557 48.919C79.7185 49.8423 79.4792 52.3194 80.4194 53.4454C81.0837 54.242 81.886 54.3068 82.6235 53.5805C83.0598 53.1527 83.4482 52.8008 84.1548 52.8233C84.8726 52.8458 84.9683 53.0232 84.715 53.6453C84.2927 54.684 83.1808 55.4834 82.0464 55.4975C81.8184 55.5003 81.5904 55.5087 81.3624 55.5172C79.5468 55.1822 78.6939 54.3546 78.311 52.5362C78.0915 51.4862 78.3167 50.4447 78.3983 49.4032Z" fill="white"></path><path d="M60.2926 47.779C60.5741 47.4609 61.9675 47.2104 62.3391 47.3962C62.5727 47.5144 62.4658 47.6748 62.4151 47.824C61.6241 50.1886 60.8275 52.5531 60.0365 54.9204C59.9436 55.1963 59.8 55.3539 59.4791 55.3173C58.995 55.261 58.5446 55.6073 58.0492 55.4553C57.3004 52.843 56.3855 50.2843 55.4285 47.7424C55.724 46.9711 56.3602 47.5087 56.8247 47.3962C57.1962 47.3033 57.2638 47.6579 57.3482 47.9366C57.7536 49.3019 58.1646 50.6671 58.5755 52.0295C58.5615 52.3532 58.6572 52.6488 58.8796 53.0767C59.3299 51.2188 59.9746 49.5439 60.2926 47.7762V47.779Z" fill="white"></path><path d="M53.8832 60.4771C52.6812 60.9472 52.1267 62.3462 52.5461 63.9704C52.7262 64.6685 52.9739 65.3835 53.8325 65.5242C54.6347 65.6537 55.1583 65.33 55.5552 64.5784C55.8874 63.9479 56.6418 64.2097 57.1091 64.356C57.5144 64.4827 57.2076 65.0176 57.0387 65.3159C56.2787 66.6671 55.0654 67.1541 53.5679 67.0471C51.3976 66.2392 50.7839 64.5531 50.9162 62.4166C50.9641 61.6594 51.3554 61.0091 51.4623 60.2772C52.6925 58.9148 54.4546 58.5798 55.9015 59.4215C56.3068 59.6579 56.6333 59.9676 56.8473 60.3786C57.095 60.8571 57.4947 61.4285 57.1879 61.8846C56.9345 62.2617 56.2899 62.2646 55.772 62.1942C55.6481 60.8093 54.9754 60.2012 53.8803 60.4771H53.8832Z" fill="white"></path><path d="M35.4313 45.9997C36.5094 45.6394 37.2948 46.011 37.641 47.0497C38.1083 48.4572 38.5727 49.8646 39.04 51.2749C39.5186 52.7218 38.9753 53.5494 37.4074 53.752C36.287 53.738 35.1695 53.7239 34.0492 53.7098C32.7965 53.0652 32.5685 52.46 33.0865 51.1595C33.2441 50.7626 33.3651 50.3488 33.5509 49.9688C34.1927 48.6514 34.4207 47.1398 35.4313 45.9997ZM35.9014 47.4635C35.299 48.9132 34.6881 50.3572 34.097 51.8125C33.9366 52.2123 34.0661 52.5106 34.5446 52.4994C35.5157 52.4741 36.4897 52.6035 37.4552 52.4206C37.9478 52.5529 38.1139 52.3136 37.976 51.8857C37.4862 50.3741 36.9992 48.8597 36.4531 47.365C36.2448 46.7964 36.0309 47.1004 35.9042 47.4635H35.9014Z" fill="white"></path><path d="M44.8472 17.3637C44.9345 16.857 44.9626 16.37 44.4053 16.0857C44.3433 16.0294 44.2814 15.9759 44.2195 15.9196L44.2279 15.9252C44.1407 15.8155 44.0675 15.6916 43.9633 15.5987C41.7424 13.5635 39.5186 11.5283 37.2976 9.49597C37.3624 9.37211 37.4271 9.24544 37.4918 9.12158C37.6326 9.21447 37.7902 9.29329 37.9113 9.40589C40.3574 11.6437 42.8036 13.8872 45.2469 16.1307C45.2582 16.5558 45.2695 16.9837 45.2807 17.4087C45.3511 19.3369 45.3821 21.2708 45.6861 23.1821C45.7452 23.548 45.8099 23.8886 45.2554 23.8746C44.8529 23.8661 44.4306 23.9562 44.5235 23.2919C44.6305 22.529 44.5882 21.7352 44.7684 20.9949C45.064 19.7789 44.7571 18.5741 44.8444 17.3665L44.8472 17.3637Z" fill="#F79623"></path><path d="M55.4315 47.7423C56.3886 50.2842 57.3034 52.8401 58.0522 55.4552C57.7341 55.5368 57.5005 55.4721 57.3822 55.123C56.6081 52.8204 55.8368 50.515 55.0402 48.218C54.8826 47.7648 55.0881 47.7254 55.4315 47.7423Z" fill="#F79623"></path><path d="M93.1064 59.4243C94.0663 61.7551 94.815 64.159 95.5807 66.5545C95.7862 67.1991 95.5047 67.8888 94.8122 68.2632C95.3724 67.2695 95.0881 66.3349 94.7165 65.3497C94.0578 63.6129 93.492 61.8395 92.8981 60.0774C92.8164 59.8325 92.4758 59.4581 93.1092 59.4243H93.1064Z" fill="#F79623"></path><path d="M73.9197 48.9472C74.8965 48.8937 75.3665 49.2399 75.3891 50.2392C75.4285 51.976 75.3722 53.7157 75.3553 55.4525C74.9021 55.5257 74.767 55.3342 74.7782 54.881C74.8064 53.5355 74.7529 52.1872 74.8007 50.8416C74.8289 50.0309 74.6065 49.3976 73.9197 48.95V48.9472Z" fill="#F79623"></path><path d="M81.5848 59.4299C81.7537 61.4539 81.6242 63.4806 81.6551 65.5074C81.6748 66.8163 81.658 66.8191 82.919 66.9007C82.5475 67.6185 81.9113 67.1597 81.4215 67.1794C80.9796 67.1963 81.1738 66.6896 81.171 66.4194C81.1541 64.2998 81.1597 62.1801 81.1625 60.0577C81.1625 59.7565 81.0668 59.3821 81.5876 59.4299H81.5848Z" fill="#F79623"></path><path d="M35.4314 45.9999C34.4209 47.1399 34.1929 48.6544 33.5511 49.9689C33.3653 50.3518 33.2442 50.7655 33.0866 51.1596C32.5715 52.4629 32.7967 53.0653 34.0493 53.71C34.0324 53.7606 34.024 53.8113 34.024 53.8648C32.5095 53.6762 31.9353 52.7529 32.4814 51.3708C33.0528 49.9154 33.6355 48.4629 34.2126 47.0076C34.4349 46.4475 34.753 46.0055 35.4314 45.9971V45.9999Z" fill="#F79623"></path><path d="M88.4561 60.615C89.6665 60.0633 90.4012 60.4855 90.4462 61.8198C90.4884 63.0808 90.4575 64.3447 90.4575 65.6058C90.4575 66.4071 90.8609 66.8369 91.6679 66.8951C91.3611 67.5622 90.7784 67.1737 90.3421 67.1878C89.9311 67.1991 90.1056 66.7459 90.1028 66.4982C90.0831 65.102 90.1028 63.7029 90.0915 62.3067C90.0831 60.9556 89.7875 60.6572 88.4589 60.6122L88.4561 60.615Z" fill="#F79623"></path><path d="M66.311 60.2772C66.1787 60.9106 66.0211 61.5439 65.9169 62.1829C65.6917 63.5566 65.9169 64.8655 66.7698 65.9774C67.2681 66.6305 67.9549 67.0921 68.8698 66.912C68.1323 67.2948 67.3103 67.14 66.5925 66.4194C65.3933 65.223 65.1569 63.7311 65.4299 62.1379C65.5482 61.4539 65.6411 60.7164 66.311 60.2744V60.2772Z" fill="#F79623"></path><path d="M70.6262 47.734C70.6318 50.3068 70.6346 52.8768 70.6403 55.4497C70.2377 55.5059 70.1646 55.2808 70.1646 54.9402C70.1702 52.7164 70.1702 50.4926 70.1646 48.2688C70.1646 47.9338 70.2293 47.7002 70.6262 47.734Z" fill="#F79623"></path><path d="M84.2929 60.6177C85.6384 60.0885 86.1845 61.0428 86.2014 61.997C86.2239 63.2609 86.2689 64.5304 86.1873 65.7915C86.131 66.6501 86.3815 67.0216 87.2485 66.8978C86.9445 67.5705 86.359 67.1736 85.9255 67.1905C85.4442 67.2074 85.6525 66.7148 85.6468 66.4474C85.6243 64.9865 85.6412 63.5255 85.6356 62.0646C85.6299 61.0259 85.3147 60.6937 84.29 60.6205L84.2929 60.6177Z" fill="#F79623"></path><path d="M51.4624 60.2771C51.3554 61.009 50.9613 61.6592 50.9163 62.4164C50.784 64.553 51.3976 66.2391 53.5679 67.047C52.3434 67.2159 50.9529 66.0083 50.5982 64.643C50.2717 63.3848 50.297 62.1378 50.86 60.9442C50.9866 60.6768 51.0795 60.3334 51.4624 60.2771Z" fill="#F79623"></path><path d="M74.6095 60.1309C74.0549 61.33 73.5623 62.5151 73.8466 63.9169C74.1056 65.2005 74.7136 66.1463 75.9128 66.6784C76.0986 66.76 76.1943 66.8473 76.2112 67.0359C74.4406 66.6221 73.4329 65.3666 73.3737 63.5819C73.3343 62.4109 73.4723 61.3075 74.2267 60.3532C74.328 60.2266 74.3815 60.0351 74.6067 60.1309H74.6095Z" fill="#F79623"></path><path d="M78.3983 49.4032C78.3166 50.4475 78.0914 51.4862 78.311 52.5362C78.6938 54.3546 79.5467 55.185 81.3624 55.5172C80.5376 55.9113 79.8648 55.4694 79.2399 55.0584C77.7227 54.0534 77.2638 50.8163 78.3983 49.4004V49.4032Z" fill="#F79623"></path><path d="M60.2927 47.7788C59.9746 49.5466 59.3328 51.2215 58.8796 53.0793C58.6572 52.6514 58.5615 52.3559 58.5756 52.0322C58.9218 50.8386 59.254 49.6395 59.6255 48.4544C59.7212 48.1504 59.7043 47.6409 60.2899 47.7788H60.2927Z" fill="#F79623"></path><path d="M48.0028 48.8936C48.076 49.541 47.6959 50.0955 47.6453 50.7261C47.4848 52.6655 47.8874 54.3601 49.5538 55.5677C48.1717 55.2018 47.6143 54.1209 47.3497 52.8795C47.0513 51.4889 47.0851 50.1068 48.0028 48.8936Z" fill="#F79623"></path><path d="M87.2512 66.8698C87.2399 65.3188 87.2258 63.7677 87.2258 62.2167C87.2258 61.8423 87.2512 61.4511 87.741 61.3525C87.741 62.9767 87.741 64.6038 87.7466 66.228C87.7466 66.577 87.8029 66.9542 87.2512 66.8698Z" fill="white"></path><path d="M58.9922 62.9062C57.5594 64.8739 58.5587 66.7402 60.9007 67.0864C59.8958 67.2103 59.0204 66.9935 58.3561 66.1744C57.5031 65.1244 57.824 63.4608 58.9922 62.9062Z" fill="#F79623"></path><path d="M86.1816 48.9076C86.0775 49.662 85.6974 50.3348 85.6355 51.1201C85.5314 52.5023 85.9592 53.6845 86.6967 54.7992C85.9114 54.5712 85.6383 53.8759 85.4751 53.2285C85.095 51.7113 84.9965 50.1912 86.1816 48.9048V48.9076Z" fill="#F79623"></path><path d="M63.1358 51.5115C63.0654 51.99 62.798 52.4066 62.7896 52.9161C62.7755 54.1378 63.1415 54.7937 64.2308 55.306C64.3941 55.382 64.6615 55.3398 64.6446 55.641C63.5665 55.5847 62.7389 55.1146 62.4124 54.0618C62.114 53.0963 62.2407 52.1758 63.133 51.5115H63.1358Z" fill="#F79623"></path><path d="M52.6333 44.4376V47.9759C52.3321 48.0125 52.197 47.7479 51.9858 47.6353C51.9999 46.7543 52.0393 45.8732 52.0196 44.9921C52.0084 44.5164 52.2167 44.3897 52.6333 44.4348V44.4376Z" fill="#F79623"></path><path d="M98.2126 44.4405V48.2096C97.9564 48.2322 97.8494 48.0267 97.7256 47.8437C97.734 46.9063 97.7509 45.969 97.7509 45.0316C97.7509 44.6966 97.734 44.3842 98.2126 44.4376V44.4405Z" fill="#F79623"></path><path d="M80.853 48.9218C81.6356 48.2603 82.7728 48.7163 82.9811 49.3694C83.2316 50.1604 83.7496 50.1378 84.3351 50.166C83.8087 50.7008 82.8995 50.6079 82.6405 49.9858C82.3083 49.1836 81.644 48.9471 80.853 48.9218Z" fill="#F79623"></path><path d="M70.6262 56.1363V59.6493C70.3673 59.7112 70.3082 59.4494 70.1477 59.3734C70.1533 58.4952 70.1646 57.6141 70.1674 56.7359C70.1674 56.4093 70.1336 56.0772 70.6291 56.1391L70.6262 56.1363Z" fill="#F79623"></path><path d="M97.8664 59.427C97.4075 60.9527 96.9515 62.4784 96.4814 64.035C96.2281 63.9281 96.3914 63.5846 96.2056 63.4383C96.8417 62.529 96.8474 61.4031 97.2584 60.4179C97.4047 60.066 97.2527 59.5002 97.8664 59.427Z" fill="#F79623"></path><path d="M65.064 48.9106C65.6016 48.3898 66.2153 48.4433 66.7698 48.8036C67.3806 49.2005 67.1611 49.8733 67.1273 50.4503C67.1189 50.608 66.9274 50.6192 66.7782 50.5714C66.812 49.2765 66.5221 48.995 65.064 48.9077V48.9106Z" fill="#F79623"></path><path d="M93.9367 48.4966C93.278 49.904 93.0669 51.3819 93.2218 52.9188C92.5912 51.8126 92.9628 49.5128 93.9367 48.4966Z" fill="#F79623"></path><path d="M59.2399 59.7872C59.2315 59.8154 59.2287 59.8464 59.2118 59.8661C58.2491 61.099 58.2913 61.2257 59.7382 61.4903C59.6397 61.5409 59.5327 61.6535 59.4482 61.6338C58.9838 61.5381 58.3532 61.9491 58.0774 61.3608C57.8719 60.9188 58.601 60.0265 59.2399 59.7844V59.7872Z" fill="#F79623"></path><path d="M53.8833 60.4771C54.9783 60.1984 55.6483 60.8092 55.7749 62.1942C55.5582 62.2139 55.2908 62.3039 55.2711 61.9521C55.2232 61.0626 54.5898 60.7389 53.8833 60.4771Z" fill="#F79623"></path><path d="M62.3645 66.5517C62.4799 66.4138 62.7248 66.1154 62.7699 66.2843C63.0091 67.1625 63.7213 66.7487 64.2195 66.8979C63.6453 67.5285 62.6826 67.3483 62.3645 66.5517Z" fill="#F79623"></path><path d="M61.6187 60.508C62.0043 60.4376 62.3449 60.4545 62.5307 60.888C62.7024 61.2877 62.784 61.6875 62.6011 62.0984C62.5842 62.1407 62.404 62.1097 62.2999 62.1097C62.3956 61.4397 62.1845 60.8993 61.6187 60.508Z" fill="#F79623"></path><path d="M87.4229 52.1702C88.4447 51.8381 89.4918 52.0998 90.5249 52.0323C91.0062 52.0013 91.4904 52.0407 91.9746 52.0464C90.463 52.3166 88.9401 52.0914 87.4229 52.1674V52.1702Z" fill="#F79623"></path><path d="M75.5439 63.7846C77.0105 63.4975 78.4799 63.6129 79.9521 63.7311C78.4827 63.748 77.0133 63.7677 75.5439 63.7846Z" fill="#F79623"></path><path d="M70.311 66.5235C70.4039 66.3518 70.5165 66.2054 70.8036 66.135C70.5925 67.1906 71.4089 66.7627 71.8592 66.8979C71.6875 67.5622 71.1668 67.1287 70.8205 67.2047C70.2604 67.3257 70.5841 66.6811 70.3138 66.5235H70.311Z" fill="#F79623"></path><path d="M34.0239 53.8675C34.0239 53.814 34.0324 53.7633 34.0493 53.7126C35.1696 53.7267 36.2871 53.7408 37.4075 53.7549C36.2899 54.0645 35.1527 53.8731 34.0239 53.8675Z" fill="#F79623"></path><path d="M86.6912 54.7964C87.0233 54.7964 87.2147 54.9484 87.2288 55.2918C86.9642 55.2186 86.7221 55.1201 86.6912 54.7964Z" fill="#F79623"></path><path d="M86.3393 48.6599C86.2858 48.7472 86.2295 48.8344 86.176 48.9245C86.2295 48.8373 86.2858 48.75 86.3393 48.6599Z" fill="#F79623"></path><path d="M94.8261 68.2546C94.7501 68.2969 94.6769 68.3363 94.6038 68.3785C94.6798 68.3363 94.753 68.2969 94.8261 68.2546Z" fill="#F79623"></path><path d="M74.7811 59.9589C74.7896 60.0884 74.7305 60.1475 74.601 60.1391C74.539 59.9561 74.6235 59.9223 74.7811 59.9589Z" fill="#F79623"></path><path d="M75.0175 59.7986C74.9697 59.8999 74.905 59.9816 74.7755 59.9675C74.7614 59.7704 74.8909 59.7901 75.0175 59.7986Z" fill="#F79623"></path><path d="M59.4229 59.6185C59.3581 59.6776 59.2962 59.7367 59.2314 59.7959C59.2117 59.6467 59.2934 59.6044 59.4229 59.6185Z" fill="#F79623"></path><path d="M59.5299 59.5705C59.4905 59.5986 59.451 59.6183 59.406 59.6296C59.4342 59.5817 59.4736 59.5592 59.5299 59.5705Z" fill="#F79623"></path><path d="M96.4081 54.2841C97.6889 53.8337 97.7536 53.7408 97.7536 52.3897C97.7536 51.8182 97.7058 51.2412 97.7649 50.6754C97.8409 49.966 97.5847 49.4706 96.9964 49.1159C97.8465 49.0596 98.1927 49.5888 98.2406 50.3094C98.2997 51.1933 98.2772 52.0857 98.249 52.9724C98.2181 53.8957 97.3961 54.4615 96.4053 54.2813L96.4081 54.2841Z" fill="#F79623"></path><path d="M45.2527 16.1252C42.8093 13.8817 40.366 11.641 37.917 9.40036C37.7931 9.28777 37.6383 9.21176 37.4976 9.11606C37.6777 8.48833 37.4103 8.10831 36.8051 7.97883C36.2984 7.87186 35.9775 8.16461 35.8255 8.615C35.7157 8.94153 35.8734 9.23147 36.1183 9.46229C36.5011 9.82823 36.9008 9.69311 37.3005 9.49044C39.5243 11.5228 41.7453 13.558 43.9663 15.5932C44.0676 15.6861 44.1436 15.8099 44.2309 15.9197C42.1647 15.8803 40.152 15.413 38.1084 15.1822C36.5489 15.0049 35.0007 14.7403 33.4413 14.5517C32.7375 14.4672 32.2731 14.2167 31.9381 13.5214C30.1084 9.72408 28.2224 5.9549 26.3589 2.17447C26.2801 2.01683 26.0155 1.87045 26.2295 1.66215C26.3618 1.53266 26.5532 1.62837 26.7221 1.65089C29.5792 2.03935 32.4363 2.41373 35.2935 2.81345C36.7629 3.01894 38.2266 3.2751 39.696 3.48059C40.0366 3.52844 40.1914 3.71423 40.3266 3.98446C42.2435 7.88031 44.1633 11.7733 46.0746 15.6692C46.1534 15.8296 46.3843 16.0379 46.1563 16.1984C45.8663 16.4011 45.5511 16.2237 45.2527 16.1224V16.1252Z" fill="white"></path><path d="M44.2195 15.9197C44.2814 15.976 44.3433 16.0295 44.4053 16.0858C44.3433 16.0295 44.2814 15.976 44.2195 15.9197Z" fill="white"></path><path d="M51.3468 54.0955C51.8648 53.7915 52.0815 53.3552 52.0393 52.7443C51.9971 52.1194 52.0309 51.4917 52.0309 50.864C52.0309 49.3495 51.8338 49.1412 50.3447 49.0624C51.5833 48.4206 52.6698 49.0399 52.6783 50.3995C52.6811 51.1989 52.6924 51.9984 52.6755 52.795C52.6586 53.6001 52.2054 54.0279 51.3497 54.0955H51.3468Z" fill="#F79623"></path><path d="M69.872 65.3018C70.4406 64.0069 70.2098 62.6501 70.055 61.3384C69.9734 60.6431 69.1852 60.6234 68.5715 60.5981C69.9142 60.1392 70.8432 60.8824 70.6799 62.3124C70.6095 62.9316 70.6715 63.5678 70.6658 64.1955C70.663 64.7501 70.4744 65.1779 69.872 65.3046V65.3018Z" fill="#F79623"></path><path d="M66.8291 53.5777C66.8037 53.0119 66.7784 52.4461 66.7502 51.8774C67.316 52.1223 67.3555 53.009 66.8291 53.5777Z" fill="#F79623"></path><path d="M66.2378 53.938C66.3532 53.8114 66.4517 53.6537 66.6657 53.741C66.5953 53.9634 66.4151 53.9465 66.2378 53.938Z" fill="#F79623"></path><path d="M66.6572 53.7494C66.6206 53.5918 66.6628 53.5158 66.8373 53.5693C66.8373 53.6903 66.7782 53.7494 66.6572 53.7494Z" fill="#F79623"></path><path d="M90.1843 50.6558C90.052 49.4651 89.8718 49.2652 88.6079 48.9218C89.7958 48.6094 90.401 49.0119 90.7247 50.1942C90.9105 50.8782 90.6234 50.8078 90.1843 50.6558Z" fill="#F79623"></path><path d="M78.2181 62.2083C78.2378 61.4314 77.8437 60.9021 77.2075 60.5165C78.0745 60.4574 78.7445 61.0936 78.7304 61.9324C78.7219 62.38 78.4799 62.2843 78.2181 62.2083Z" fill="#F79623"></path><path d="M62.2689 64.9779C62.3665 63.9908 61.8401 63.471 60.6897 63.4185C60.9796 63.1173 61.385 63.2383 61.7312 63.1567C62.0409 63.0835 62.6123 62.8583 62.632 63.3734C62.6517 63.8942 63.1162 64.6233 62.266 64.9808L62.2689 64.9779Z" fill="#F79623"></path><path d="M37.4552 52.4234C37.0921 50.7232 36.5178 49.0877 35.9014 47.4663C36.028 47.1032 36.242 46.7992 36.4503 47.3678C36.9964 48.8597 37.4862 50.3741 37.9731 51.8885C38.1111 52.3192 37.945 52.5557 37.4524 52.4234H37.4552Z" fill="#F79623"></path></g><defs><clipPath id="clip0_8_514"><rect width="100" height="70.0802" fill="white" transform="translate(0 0.0800781)"></rect></clipPath></defs></svg>